<svg id="Слой_1" data-name="Слой 1" xmlns="http://www.w3.org/2000/svg" viewBox="0 0 124.15 124.15"><defs><style>.cls-1{fill:#ff11d9;}</style></defs><path class="cls-1" d="M365.74,262.24a35.85,35.85,0,0,1,35.81,35.81v48.53a35.85,35.85,0,0,1-35.81,35.81H317.21a35.85,35.85,0,0,1-35.81-35.81V298.05a35.85,35.85,0,0,1,35.81-35.81h48.53m0-2H317.21a37.81,37.81,0,0,0-37.81,37.81v48.53a37.81,37.81,0,0,0,37.81,37.81h48.53a37.81,37.81,0,0,0,37.81-37.81V298.05a37.81,37.81,0,0,0-37.81-37.81Z" transform="translate(-279.4 -260.24)"/><path class="cls-1" d="M341.48,291.66a30.66,30.66,0,1,1-30.66,30.66,30.7,30.7,0,0,1,30.66-30.66m0-2h0a32.66,32.66,0,0,0-32.66,32.66h0A32.66,32.66,0,0,0,341.48,355h0a32.66,32.66,0,0,0,32.66-32.66h0a32.66,32.66,0,0,0-32.66-32.66Z" transform="translate(-279.4 -260.24)"/><path class="cls-1" d="M371,281.18a3.72,3.72,0,1,1-3.71,3.72,3.72,3.72,0,0,1,3.71-3.72m0-2a5.72,5.72,0,1,0,5.71,5.72,5.72,5.72,0,0,0-5.71-5.72Z" transform="translate(-279.4 -260.24)"/></svg>