<svg id="Слой_2" data-name="Слой 2" xmlns="http://www.w3.org/2000/svg" viewBox="0 0 197.75 177.57"><defs><style>.cls-1{fill:none;stroke:#f400c6;stroke-miterlimit:10;stroke-width:3px;}</style></defs><path class="cls-1" d="M468.65,399.26s172.93-30.38,178.82-31.46,16.76,8.09,10.83,20.32c-4.49,9.27-67.37,144.25-67.37,144.25s-4.82,11.84-13.44,9.64c-10.35-2.63-37.21-47-37.21-47s-24.69,16.57-28.84,18.15c-3.45,1.32-9.17,1.71-8-5.57s14.65-49,14.65-49l58.16-37.4a1.13,1.13,0,0,0-1.08-2c-24.13,11-69.62,31.24-72.61,28.29-6.26-6.16-28.42-28.68-29.6-29.77C471.6,416.54,459.52,405,468.65,399.26Z" transform="translate(-463.77 -366.22)"/></svg>