<svg id="Слой_1" data-name="Слой 1" xmlns="http://www.w3.org/2000/svg" viewBox="0 0 43.47 43.47"><defs><style>.cls-1{fill:#fff;}</style></defs><path class="cls-1" d="M309.46,262.24a11.42,11.42,0,0,1,11.41,11.41V290.3a11.42,11.42,0,0,1-11.41,11.41H292.81A11.42,11.42,0,0,1,281.4,290.3V273.65a11.42,11.42,0,0,1,11.41-11.41h16.65m0-2H292.81a13.41,13.41,0,0,0-13.41,13.41V290.3a13.42,13.42,0,0,0,13.41,13.41h16.65a13.42,13.42,0,0,0,13.41-13.41V273.65a13.41,13.41,0,0,0-13.41-13.41Z" transform="translate(-279.4 -260.24)"/><path class="cls-1" d="M301.14,272.54A9.44,9.44,0,1,1,291.7,282a9.44,9.44,0,0,1,9.44-9.43m0-2h0A11.44,11.44,0,0,0,289.7,282h0a11.44,11.44,0,0,0,11.44,11.44h0A11.44,11.44,0,0,0,312.57,282h0a11.43,11.43,0,0,0-11.43-11.43Z" transform="translate(-279.4 -260.24)"/><path class="cls-1" d="M311.49,266.87a2,2,0,1,0,2,2,2,2,0,0,0-2-2Z" transform="translate(-279.4 -260.24)"/></svg>